<svg xmlns="http://www.w3.org/2000/svg" viewBox="0 0 497.689 497.689">
  <circle cx="248.845" cy="248.845" r="248.845" fill="#e9eef5"/>
  <g transform="translate(248.845 248.845) rotate(-20) scale(0.82) translate(-248.845 -248.845)">
    <path
      fill="#18b368"
      d="M88.604 318.598c24.989-24.99 65.503-24.99 90.489 0 24.989 24.988 24.989 65.5 0 90.488-3.233 3.233-6.729 6.039-10.417 8.436l80.169 80.168 80.168-80.168c-3.686-2.396-7.182-5.201-10.416-8.436-24.989-24.988-24.989-65.5 0-90.488 24.988-24.99 65.502-24.99 90.488 0 3.234 3.232 6.039 6.73 8.436 10.415l80.168-80.168-80.168-80.168c3.686-2.396 7.184-5.202 10.416-8.436 24.99-24.989 24.99-65.502 0-90.489-24.988-24.989-65.502-24.989-90.488 0-3.232 3.234-6.037 6.732-8.436 10.417L248.845 0l-80.168 80.168c-2.396-3.685-5.202-7.183-8.436-10.417-24.989-24.989-65.502-24.989-90.489 0-24.986 24.989-24.989 65.5 0 90.489 3.235 3.234 6.732 6.039 10.417 8.436L0 248.845l80.168 80.168c2.398-3.685 5.202-7.183 8.436-10.415z"
    />
  </g>
</svg>
